<svg version="1.2" xmlns="http://www.w3.org/2000/svg" viewBox="0 0 1024 1024" width="1024" height="1024">
	<title>logo-svg</title>
	<style>
		.s0 { fill: #f5e8d8 } 
	</style>
	<g id="Layer 3">
		<path id="Path 0" fill-rule="evenodd" class="s0" d="m722.3 150.8c1.2 0 3.7 1 5.6 2.1 1.9 1.2 11.2 9.8 20.6 19 9.4 9.3 39.3 39.5 66.4 67.2 27.2 27.6 52.7 54.1 56.8 58.8 4 4.7 7.3 9.5 7.3 10.7 0.1 1.2-1 3.8-2.4 5.9-1.4 2.1-4.2 4.4-6.2 5.3-3.2 1.3-4.9 1.3-24-1.9l-36.4 36.5c-20 20.2-38.6 39.5-41.3 43-2.7 3.6-6.8 10.1-9.2 14.5-2.5 4.4-6.2 12.1-8.3 17.1-2.1 5-5.8 15.6-8.1 23.5-2.3 8-6.6 24.8-9.6 37.5-3 12.6-11.7 50.7-19.4 84.5-7.6 33.8-16.7 74.1-20.1 89.4-3.5 15.3-9 38.4-12.2 51.3-3.3 13-8 30.1-10.4 38-2.4 7.9-6.1 19-8.1 24.6-2.1 5.6-6.4 16.2-9.6 23.5-3.2 7.4-8.8 18.9-12.5 25.7-3.6 6.7-10.8 18.5-15.8 26.2-5.1 7.7-12.9 18.8-17.5 24.7-4.5 5.8-12 14.9-16.5 20.1-4.5 5.2-14.4 15-22.1 21.8-7.6 6.8-19.4 16.5-26.2 21.7-6.8 5.1-15.9 11.7-20.3 14.7-4.5 2.9-15.8 9.7-25.2 15-9.4 5.3-20.7 11.2-25.1 13.1-4.4 1.8-11.7 4.8-16.1 6.5-4.4 1.7-14.5 5.1-22.4 7.5-8 2.4-19.3 5.5-25.2 6.9-5.9 1.3-15.5 3.2-21.4 4.2-5.9 0.9-15.8 2.1-21.9 2.7-6.2 0.6-18 1.1-26.2 1.1-8.3 0-23-0.7-32.7-1.6-9.7-0.9-22.2-2.4-27.8-3.3-5.6-0.9-14-2.6-18.7-3.8-4.7-1.2-13.9-3.9-20.4-5.9-6.4-2.1-17-6-23.5-8.6-6.5-2.7-16.1-7-21.4-9.7-5.3-2.6-16.4-8.9-24.6-13.9-8.2-4.9-18.6-11.7-23-15-4.4-3.4-19.6-17.6-33.8-31.8-14.5-14.4-28.8-29.8-32.6-35-3.8-5.1-10-14.2-13.8-20.3-3.8-6.1-9.6-16.4-13-22.8-3.4-6.5-8.2-16.9-10.7-23-2.4-6.2-6.3-16.8-8.6-23.6-2.4-6.7-5.7-18.1-7.4-25.1-1.8-7.1-4-17.2-4.9-22.5-1.1-6.7-1.8-19.8-2.2-42.8-0.4-26.1-0.2-36.6 1.2-49.2 0.9-8.8 2.9-21.8 4.4-28.9 1.4-7.1 4.1-18 5.8-24.3 1.8-6.4 5.7-18.2 8.6-26.3 3-8 8.8-21.4 12.8-29.6 4.1-8.3 10.1-19.6 13.4-25.2 3.4-5.6 10.2-15.9 15.3-23 5-7.1 12.1-16.4 15.8-20.9 3.6-4.4 14-15.2 23.1-24 9-8.9 21.7-20.3 28.2-25.5 6.5-5.2 16.6-12.7 22.5-16.7 5.9-4 14.8-9.7 19.8-12.7 5-2.9 13.6-7.9 19.2-11 5.6-3.1 15.7-8 22.5-10.9 6.8-2.9 18.1-7.4 25.1-10 7.1-2.6 21.3-7.2 31.6-10.2 10.3-2.9 33.2-8.9 50.8-13.2 17.7-4.3 46.6-11.1 64.2-15 17.7-3.9 36.2-8.1 41.2-9.2 5-1.2 13.2-3.1 18.2-4.2 5-1.2 21.9-5.1 37.5-8.6 15.6-3.6 38.2-8.9 50.2-11.9 12.1-3 26.3-6.9 31.6-8.7 5.3-1.7 14.9-5.4 21.4-8.2 6.5-2.7 14.4-6.7 17.7-8.8 3.2-2.1 9.9-7.4 14.9-11.8 5.1-4.3 14.7-13.2 21.5-19.6 6.7-6.4 21.5-20.6 53.5-51.3l-1-10.2c-0.5-5.6-0.6-11.6-0.2-13.4 0.5-1.7 1.4-4.3 2-5.6 0.7-1.3 2.6-3.1 4.2-4 1.7-0.8 3.9-1.5 5.1-1.6zm-84.5 167.4c-13.6 2.2-29.4 4.6-35.3 5.5-5.9 0.8-19.2 3-29.5 4.8-10.2 1.8-34.1 6.2-52.9 9.7-18.8 3.5-47 9-62.6 12.1-15.6 3.2-47.4 9.6-70.6 14.4-23.3 4.8-49.3 10.4-57.8 12.5-8.5 2.1-18.9 4.8-23 6-4.1 1.2-15 4.5-24.1 7.5-9.1 2.9-21.9 7.5-28.3 10.1-6.5 2.7-16.6 7.2-22.5 10.2-5.9 3-15.3 8.1-20.9 11.3-5.6 3.3-14.7 9.1-20.3 12.9-5.6 3.8-14.2 10.4-19.2 14.5-5 4.2-16.6 15.1-25.8 24.2-9.2 9.2-20.5 20.9-25.1 26.2-4.6 5.3-12.3 15.7-17.1 23-4.9 7.4-12.2 19.9-16.4 27.9-4.1 7.9-10.1 21.2-13.4 29.4-3.2 8.2-7.3 20.3-9.1 26.7-1.8 6.5-4.5 17.4-6 24.1-1.4 6.8-3.4 19.1-4.5 27.3-1.4 10.9-1.9 21.8-1.8 39.6q0 24.6 1.8 37.4c1 7.1 3.2 18.9 5 26.3 1.8 7.3 4.2 16.5 5.5 20.3 1.2 3.8 5 14.2 8.5 23 3.4 8.8 9.2 21.3 12.8 27.8 3.6 6.5 9.7 16.6 13.5 22.5 3.9 5.9 10.5 14.8 14.6 19.7 4.2 5 13.2 14.7 20 21.4 6.8 6.8 16.9 16.2 22.5 20.9 5.6 4.6 14.7 11.5 20.3 15.1 5.6 3.7 16.2 10 23.5 14.1 7.4 4 19.9 10.1 27.8 13.4 8 3.3 20.3 7.7 27.3 9.7 7.1 2.1 18.8 5 26 6.5 7.2 1.5 19.2 3.3 26.7 4 8.2 0.7 23.3 0.9 37.7 0.5 13.3-0.3 29.7-1.3 36.4-2.3 6.8-0.9 17.9-3.1 24.6-4.8 6.8-1.7 16.9-4.5 22.5-6.2 5.6-1.8 15.2-5.2 21.4-7.7 6.2-2.4 16.8-7.2 23.5-10.6 6.8-3.3 18.4-9.9 25.7-14.6 7.4-4.7 18.2-12.1 24.1-16.5 5.9-4.3 17.5-14.7 25.7-22.9 8.3-8.3 18.6-19.2 23.1-24.2 4.4-5 11.2-12.9 15.1-17.7 3.9-4.7 9.7-12.8 12.9-18.1 3.1-5.3 9.4-16.7 13.9-25.2 4.5-8.5 10.5-21 13.4-27.8 2.9-6.8 7.3-18.3 9.8-25.7 2.4-7.3 5.8-18.2 7.5-24.1 1.8-5.9 4.2-15 5.4-20.3 1.3-5.3 5.8-26.5 10.1-47.1 4.4-20.6 13-63.4 19.2-95.2 6.2-31.8 12.7-65.5 14.5-74.9 1.8-9.4 6.6-37.1 10.7-61.5 4.1-24.5 9.2-56.2 11.2-70.7 2.1-14.4 4.5-32.2 5.4-39.5 0.9-7.4 1.7-14 1.7-14.8 0-0.9-2-1.3-6.7-1.2-3.7 0.1-17.3 1.7-30.3 3.7-12.9 1.9-34.6 5.3-48.1 7.4z"/>
		<path id="Path 3" class="s0" d="m299.4 448.4c-10.9 2.2-24.6 6.1-30.6 8.4-6 2.3-16.7 7.3-24 11-7.2 3.6-19.9 11.4-28.4 17.4-8.3 5.9-22.9 18.5-32.3 28-9.4 9.4-21.6 24.6-27.2 33.6-5.6 9-13.8 24.7-18.2 34.9-4.4 10.2-9.8 25-11.8 32.7-2.2 8-3.9 22.9-4 33.9-0.2 14.1 0.7 21.4 3.3 26.2 1.9 3.6 10.7 12.4 19.4 19.6 10.5 8.6 17.3 16.1 19.9 21.9 3 7.1 3.3 10.5 1.5 18.5-1.3 5.4-1.8 16.7-1.4 25.1 0.7 12.4 2.1 17.1 7.4 25.1 3.6 5.4 13.3 15 21.6 21.2 8.4 6.2 17.5 13.8 20.2 16.9 3.4 3.8 5.3 9.4 6.1 18.1 0.7 6.9 2.3 17.5 3.6 23.5 1.3 6 4.5 15.3 7.3 20.8 2.6 5.3 8.9 13.4 13.8 17.9 6.2 5.7 11.1 8.2 15.6 8.2 3.7 0 8.5-2 10.9-4.4 2.4-2.4 6.8-9.9 9.9-16.9 4.3-9.7 10.6-17.5 29.2-35.5 17.9-17.3 24.9-25.9 29.3-35.4 3.3-6.9 6.4-18.7 7.3-26.2 1.2-11.8 0.7-15.1-3.9-24.4-2.8-6-8.2-12.9-11.8-15.5-3.6-2.6-15.8-7.9-27.3-11.9-11.4-3.9-23-8.7-25.9-10.7-3-1.9-9.6-9.2-14.8-16.1-5.5-7.3-13.1-14.4-18.2-16.9-6.2-3.2-16-4.9-34.4-6.3-16.1-1.1-28.2-3.1-32.7-5.4-5-2.5-8.8-7.1-12.4-15.1-3.2-6.8-8.7-14.3-14.1-18.5-6.9-5.5-9-8.6-9-13.6 0-4.1 2.1-8.6 5.4-12 4.2-4.2 6.5-5 9.4-3.4 2 1.1 5.3 5.3 7.1 9.2 2.6 5.7 4.5 7.3 9.6 7.2 3.4 0.1 7-1.5 7.9-3.2 0.8-1.9 2.7-8.2 4.1-14.2 1.3-6 5.2-14.8 8.5-19.6 3.4-4.8 12.8-13.5 21.3-19.2 8.2-5.7 23.9-13.9 34.8-18.2 10.8-4.2 22.3-10.4 25.7-13.6 3.3-3.2 7-9 8.2-12.9 1.1-4 1.5-9.3 0.7-12-0.7-2.7-3-6.7-4.9-8.9-2-2.1-5.5-3.8-7.9-3.8-2.4 0-7.4 1.4-11 3.2-4.4 2.2-7.7 2.6-10.3 1.1-2.1-1.1-3.8-3.2-3.9-4.7 0-1.5 1.8-5.2 4-8.2 2.3-3 10.5-8.3 18.2-11.8 7.6-3.5 17.8-6.8 22.7-7.3 7.9-0.9 9.2-0.3 15.7 8 5 6.2 8.8 8.9 12.6 8.9 3.5 0 8.9-3.4 15.3-9.7 8.3-8.3 12.9-10.9 28.9-15.7 10.5-3.2 20.9-7.4 23.1-9.3 2.5-2.3 3.7-5.7 3.3-10-0.6-4.8-2.5-7.4-7.3-9.7-4.4-2.1-16.1-3.3-36-3.7-22.4-0.5-34.2 0.3-49.1 3.4zm121.4 12.1c-1.4 1.8-2 6.5-1.4 10.4 0.7 3.9 4.1 10.4 7.7 14.3 3.6 3.8 6.5 9 6.5 11.4 0 4-1.1 4.2-12 3.3-10-1-12.7-0.5-16.4 3.2-2.4 2.4-4.3 6.9-4.3 9.8 0 3 2.4 8 5.4 11 4.5 4.5 7.6 5.4 17.5 5.4 6.6 0 13.9 1 16.3 2.2 2.5 1.2 4.4 4.4 4.5 7 0.1 2.8-1.7 6.7-3.8 8.8-2.2 2.1-6.3 3.8-9.4 3.8-2.9 0-7.7 1.5-10.3 3.3-3.4 2.3-4.9 5.5-5 10.4 0 4.5 1.7 8.9 4.9 12.1 2.7 2.7 8.9 5.5 13.7 6.2 4.8 0.7 12.4 0.3 16.9-1.1 6-1.7 10.3-5.4 15.8-13.4 4.3-5.9 9.4-11.4 11.5-12 2.1-0.6 13.6 2.3 25.7 6.5 11.9 4.4 23.6 9.5 25.6 11.6 2.2 2 3.9 6 3.9 8.7 0 2.7-2.2 6.3-5 8.2-4.4 3-6.2 3-18 0-7.2-1.8-19.5-3.2-27.3-3.3-10.8-0.1-15.9 1.1-21.8 4.7-4.2 2.7-9.6 5.2-12 5.6-2.4 0.5-9.6 6.4-16.1 13.3-6.4 6.8-13.5 16.3-15.7 21.1-2.2 4.8-4.7 14.2-5.5 20.7-1.2 8.9-0.6 15.3 2.2 24 2.1 6.6 6.9 15.3 10.8 19.4 3.7 4 10.5 9.1 15 11.4 4.7 2.4 16.8 5.1 28.4 6.4 11.1 1.2 22.4 3.6 25.1 5.4 2.7 1.8 6.4 7.5 8.2 12.6 2.9 8.1 3 10.6 0.2 20.2-1.6 6-4.6 16.3-6.5 22.9-1.9 6.6-3.5 16.5-3.5 21.8-0.1 6 1.6 12.6 4.3 16.9 2.4 3.9 7.1 8.8 10.4 10.8 5 3 7.3 3.2 14.2 1 5.3-1.7 11.6-6.5 18.1-14 5.4-6.3 14.2-20.3 19.5-31.1 5.2-10.7 11.1-24.2 13-30 1.9-5.7 4.9-19 6.7-29.4 1.8-10.6 3.3-30.9 3.3-45.3 0-14.4-1.1-32.6-2.3-40.4-1.3-7.8-4.8-22.1-7.8-31.6-3.2-9.7-9.2-24.4-13.4-32.8-4.2-8.4-10.7-19.7-14.3-25.2-3.7-5.3-11.7-16-17.7-23.6-6.1-7.7-19-20.3-28.6-27.9-9.6-7.7-28-19.4-41-26-12.8-6.5-25.8-11.9-28.6-11.9-2.8 0-6.3 1.5-7.6 3.2z"/>
		<path id="+" class="s0" d="m268.5 625.1l41.5 0.8q0-19.3-0.6-29.6-0.5-10.2-0.5-10.7 0-6.4 3-10 3.3-3.6 8.6-3.6 5.2 0 8.6 3.9 3.3 3.6 3.3 9.9 0 0.6-0.3 5.6-0.8 14.9-0.8 34.5l41.5-0.5q6 0 9.9 3.3 3.9 3.3 3.9 8.3 0 5-3.9 8.3-3.9 3.3-9.9 3.3l-41.5-0.8 1.1 44q0 6.3-3.3 10.2-3.1 3.9-8.6 3.9-5.3 0-8.6-3.9-3-4.1-3-10.5l1.1-44-41.5 0.8q-6.1 0-10-3.3-3.9-3.3-3.9-8.3 0-5 3.9-8.3 3.9-3.3 10-3.3z"/>
		<path id="=" class="s0" d="m644.6 410.6l-53.6-0.9-50.9 0.9q-6.1 0-10-3.3-3.6-3.4-3.6-8.3 0-5 3.6-8.3 3.9-3.4 10-3.4l50.9 0.9 53.6-0.9q6.1 0 9.7 3.4 3.9 3.3 3.9 8.3 0 4.9-3.9 8.3-3.6 3.3-9.7 3.3zm0 42.6l-53.6-0.9-50.9 0.9q-6.1 0-10-3.3-3.6-3.4-3.6-8.3 0-5 3.6-8.3 3.9-3.4 10-3.4l50.9 0.9 53.6-0.9q6.1 0 9.7 3.4 3.9 3.3 3.9 8.3 0 4.9-3.9 8.3-3.6 3.3-9.7 3.3z"/>
		<path id="N" class="s0" d="m981.5 56.1l-1.9 64.6 0.7 71.3q0 21.4-17.8 21.4-10.5 0-16.4-9.8l-62.2-104.3q-0.5 5.7-0.5 19l1.6 69.4q0 25.7-18 25.7-18.1 0-18.1-25.7l1.9-64.6q0-8.8-0.9-32.1-1-23.3-1-39.4 0-21.2 17.6-21.2 12.1 0 17.6 9.5l63.4 108.8-0.2-28-1.9-64.6q0-25.7 18-25.7 18.1 0 18.1 25.7z"/>
		<path id="-" class="s0" d="m418.7 875.5l-39.5 1.2q-7.3 0-11.9-4-4.4-3.9-4.4-9.9 0-6 4.3-10 4.6-4 11.9-4l39.5 0.8 39.5-1.2q7.3 0 11.6 3.9 4.7 4 4.7 10 0.1 5.9-4.6 9.9-4.3 4-11.6 4.1 0 0-39.5-0.8z"/>
	</g>
</svg>